 <!DOCTYPE svg PUBLIC "-//W3C//DTD SVG 1.1//EN" "http://www.w3.org/Graphics/SVG/1.1/DTD/svg11.dtd">
<svg xmlns="http://www.w3.org/2000/svg" xmlns:xlink="http://www.w3.org/1999/xlink" width="865.76" height="682.89" viewBox="0 0 865.76 682.89">
<defs>
<clipPath id="a">
<rect x="240.21" y="75.15" width="337.85" height="428.86" fill="none"/>
</clipPath>
<style xmlns="http://www.w3.org/1999/xhtml">*, ::after, ::before { box-sizing: border-box; }
img, svg { vertical-align: middle; }
</style>
<style xmlns="http://www.w3.org/1999/xhtml">*, body, html { -webkit-font-smoothing: antialiased; }
img, svg { max-width: 100%; }
</style>
</defs>
<path d="M828.05,287.49l-143,377.32H160.35a41.79,41.79,0,0,1-40.85-33l-84-388.39a45.94,45.94,0,0,1,28.77-52.73L335.73,88.78l9.58-3.6,10.95-4.12,128.63-48.3L489,31.22l29.35-11A43.12,43.12,0,0,1,560.57,27l75.56,61,8.48,6.84.39.31,21.89,17.68L812.61,230.52A50.31,50.31,0,0,1,828.05,287.49Z" fill="#0071f2" data-primary="true"/>
<path d="M828.05,287.49l-143,377.32H160.35a41.79,41.79,0,0,1-40.85-33l-84-388.39a45.94,45.94,0,0,1,28.77-52.73L335.73,88.78l9.58-3.6,10.95-4.12,128.63-48.3L489,31.22l29.35-11A43.12,43.12,0,0,1,560.57,27l75.56,61,8.48,6.84.39.31,21.89,17.68L812.61,230.52A50.31,50.31,0,0,1,828.05,287.49Z" fill="#fff" opacity="0.7"/>
<rect x="230.24" y="38.99" width="358.42" height="516.75" rx="13.19" fill="#3f4347"/>
<rect x="240.21" y="75.15" width="337.85" height="428.86" fill="#ebebeb"/>
<g clip-path="url(#a)">
<path d="M354.8,142.22c-4-4.8-2.75-15.11,1.54-19.64-2.54-3-1.1-8.53,1.3-11.65s9.14-5.68,9.14-5.68c1.62-9,11.32-15.1,20.29-13.26,4.42-7,15.74-7.14,23.73-5.11a20.93,20.93,0,0,0,5.91,1.1,32.06,32.06,0,0,0,4.36-.76c8-1.37,16.19,4,19.58,11.44a15.34,15.34,0,0,0,1.83,3.44,20.35,20.35,0,0,0,4.09,3.05,12.86,12.86,0,0,1,5.24,9.37c.25,3.13-.63,6.5.79,9.3.71,1.4,1.94,2.52,2.51,4,1.63,4.25-3,8.83-1.94,13.25.22.91.65,1.75.94,2.63a8,8,0,0,1-.29,5.52c-.58,1.35-1.56,2.6-1.6,4.07a12.62,12.62,0,0,0,.77,3.25c.64,2.65-4.74,13.15-7,14.69l-62.72,15.1c-21.87-3.79-18.14-16.17-18.78-21.45a4.77,4.77,0,0,0-.73-2.52,5.32,5.32,0,0,0-1.92-1.16c-4.5-2.21-5.47-9.35-5.18-14.36a6,6,0,0,0-.11-2.11A7.67,7.67,0,0,0,354.8,142.22Z" fill="#0071f2" data-primary="true"/>
<path d="M356.38,559.55s-18.15-37.94-27.81-68.5a120.4,120.4,0,0,1-4.83-22.7c-1.86-16.29-3.79-46.61,4.53-64.69l26.19-4.87L410.07,424l52.41-21.73,24.78,3.08s12.93,27.92-3.37,84.49c0,0-6.71,25.56-36.11,83.09l-54,4.47s.32-26.2,3.83-50.17l8.16-77.52a1.28,1.28,0,0,0-1.28-1.42h0a1.28,1.28,0,0,0-1.27,1.12c-1.33,10-11.11,84.75-12,109.78,0,0-1,14.38-.32,19.49l-27.48,3.2S360.53,569.14,356.38,559.55Z" fill="#f9b499"/>
<path d="M328.27,403.66S357,404.87,405,442.58c0,0,1.6,1.92,3.52-1s21.8-37.22,70.66-28.84l9.87.08s-6.39-31.32-11.18-36.76c0,0-13.84,8.26-53.78,18.49,0,0-30,8.68-89.72-19.76Z" fill="#0071f2" data-primary="true"/>
<path d="M331,404s-3.67,11.44-3.67,16.56c0,0-.64,3.83,3.2,8.63,0,0,7.67,6.39,7.67,11.5,0,0,0,3.41,1.66,4.77a5.92,5.92,0,0,1,1.57,1.81,4.81,4.81,0,0,1-.41,5.6,3,3,0,0,1-1.46.94c-2,.58-6.91.88-9.67-8.64,0,0-3.52,2.87,2.88,13.42a48.34,48.34,0,0,0,8.31,9.91s5.75,5.75,2.55,9.9c0,0,1.77,9.53-7.42,5.88L324.1,448.33l-4.16-30.68L326.33,401l1.94,2.63Z" fill="#f7a48b"/>
<path d="M477.55,412.73s-3.57,4.6-7.72,6.52a9,9,0,0,0-4.47,8,39.71,39.71,0,0,1-5.44,5.43,4.3,4.3,0,0,0,.64,5.75s2.24,2.88,8,.64l8.29-8.09s2.9,1.06-2.22,7.45c0,0-14.06,15.66-13.74,19.18,0,0,.32,3.51,5.75,2.24,0,0-4.79,5.43-2.55,8.94,0,0,2.23,1.6,6.71-.31,0,0,2.24,1.91,9.59-2.56l10.91-11.26-3.88-38.92-8-3.71Z" fill="#f7a48b"/>
<path d="M382.45,207.73s-7.22-2.29-11.37-15.39c0,0-8.31-4.47-8-12.14,0,0,1.59-8.63-3.84-13.75,0,0-8.63-19.17,6.07-39.94,0,0,6.4-6.08,6.4-9,0,0-1-9.27,8.94-9.27,0,0,12.79-13.42,26.53-11.83a44.57,44.57,0,0,1,25.89,13.43,19.54,19.54,0,0,1,11.5,16.3,8.72,8.72,0,0,0,3.2,9.9s9.27,6.39,5.43,15c0,0-2.56,1.28,0,6.71,0,0,9.59,16.94-5.43,32.6,0,0-3.91,13.86-11.23,15.72,0,0-12.74-4.85-14-15.72l-30.68,15.66Z" fill="#2f2e41" data-secondary="true"/>
<path d="M391.21,178.6l.64,20.45s.64,4.48-6.07,7.35c0,0-18.22,8-29.08,15.34,0,0-21.42,16-22.06,36.12l-9.9,46L315.47,340a202.1,202.1,0,0,0-9,47.62s-4.47,34.51-1,50.17c0,0,5.75,24.93,9.27,30.37,0,0,2.24,12.14,14.06,11.5,0,0,12.78,10.55,13.42-1.28,0,0,1.92-1.92-2.23-7.35,0,0-17.58-18.21-11.83-28.12,0,0,2.24-1.6,5.43,5.43,0,0,2.24,4.16,5.44,3.2,0,0,3.51-1.92-.64-4.16a5.73,5.73,0,0,1-2.21-4.77,9.25,9.25,0,0,0-1-4.77,12.11,12.11,0,0,0-3.85-4.52s-8.63-5.75-6.39-14.38c0,0,8-37.07,10.22-51.45l4.8-20.46s8.95-26.2,11.5-36.75c0,0,5.12,16-1.28,29.72,0,0-16,27.17-16,34.84,0,0,40.47,21.87,81.45,21.36a64.41,64.41,0,0,0,17.11-2.6c12.42-3.6,37.36-11.33,44.94-17.49,0,0-8.31-22.37-16.3-37.71,0,0-.32-32,2.24-44.74,0,0-.32-18.86-3.2-28.44V245.57a1.29,1.29,0,0,1,1.13-1.28h0a1.3,1.3,0,0,1,1.46,1.26l.61,31.16s2.87,28.76,4.47,36.12l9.27,52.09L481,388.25l.31,19.17s-2.23,8.95-9.58,13.11c0,0-4.16,1-5.12,6.71a8.24,8.24,0,0,1-4.2,5.28,3.24,3.24,0,0,0-1.87,2.87c0,1.28.64,2.71,3.2,3.35,0,0,4.79,1.28,11.82-9.26,0,0,5.75.95,1,8.62,0,0-17.9,17.9-14.06,20.46,0,0,1.28,1.28,7.67-1.6,0,0-7.35,8-4.79,10.55,0,0,1.59,1.91,5.11-1,0,0,.32,3.83,9.91-2.24l12.46-13.42s1-.32,2.24-7c0,0,1-12.79,3.19-17.9,0,0,5.76-26.85,5.76-50.5,0,0,1-39.62-4.16-60.72l-14.38-46.66-5.75-20.77s-4.48-18.22-15.34-27.17c0,0-6.71-6.71-24.93-12.78,0,0-16.3-5.75-16.94-16.94l-1.6-17.57Z" fill="#f9b499"/>
<path d="M391.21,178.6l.29,9s20.51,6.55,25.13-7.93Z" fill="#f7a48b"/>
<path d="M377.47,210.87c-4.24-1.42-6.59-7.69-6.69-8-1.25-3.74-8.28-10.19-10.89-12.36l-.15-.15c-3.07-3.89-2.79-7.45-2-9.76a18.82,18.82,0,0,0,.89-7.07l.43-12.74,2,.07-.43,12.65a20.68,20.68,0,0,1-1,7.73,8.06,8.06,0,0,0,1.63,7.8c1,.86,9.81,8.35,11.41,13.17,0,0,2.12,5.61,5.44,6.72Z" fill="#2f2e41" data-secondary="true"/>
<path d="M365.32,216.31l-.64,24.61s-1.91,11.5-8.3,19.17c0,0-9.91,10.87-8.31,23.33,0,0-.64,16.62,7.35,15.34,0,0,8.06-1.88,20-5.64a38.78,38.78,0,0,0,5.25-2.09,54.86,54.86,0,0,1,29.39-5.16,33.36,33.36,0,0,1,12.23,3.84c7.48,4.05,25.31,11.77,41.46,3.94,0,0-.32-17.58-3.2-28.44,0,0-1.6-4.8-7.67-11.19,0,0-4.15-5.11-3.19-17.26l.21-25.19-5-2.49-1.57,18a31.75,31.75,0,0,1-2.58,10.06c-1.92,4.33-5.11,10.08-9.62,13.69,0,0-13.42,10.54-18.22,24.92,0,0-2.55,6.71-8,5.76a8,8,0,0,1-5.43-3.84s-11.82-17.58-20.77-24.93A29.9,29.9,0,0,1,372,233.89l-1.37-20.28Z" fill="#0071f2" data-primary="true"/>
<path d="M386.42,246.35c6.48,5.69,12.25,13.74,13.74,22.37-.36-1.05-.6-2.13-1.05-3.15-2.74-7.22-7.5-13.56-12.69-19.22Z" fill="#f7a48b"/>
<path d="M417.1,245.39a50.87,50.87,0,0,0-4.48,23c-.12-1-.26-2-.32-3a35,35,0,0,1,4.8-20.05Z" fill="#f7a48b"/>
<path d="M474.94,333.92c.94-3.48,4.07-7.19,8-6.71-3.75.48-6.19,3.65-8,6.71Z" fill="#f7a48b"/>
<path d="M351.58,310.27l.32-10.55s4.48,13.11,1.6,23.33C353.5,323.05,353.18,313.78,351.58,310.27Z" fill="#f7a48b"/>
<path d="M314,464.85c-.17-1.49-.36-4.09,1.28-4.84a1.84,1.84,0,0,1,.83-.11l-.13,0c1-.47-.25-1.16-.73-1.45-2.11-1.83-1.69-4,.68-5.28l-.15.25a7.6,7.6,0,0,1,3-5.31,10.66,10.66,0,0,1,1.73-1.08l-.82.6a11.87,11.87,0,0,0-1.12,1,7.67,7.67,0,0,0-2.24,4.94l-.14.1c-1.17.7-2.23,1.84-1.45,3.24a4.53,4.53,0,0,0,.81,1,4.38,4.38,0,0,1,.59.4c.42.3.92.9.64,1.45a1.26,1.26,0,0,1-.71.59c-2-.32-2.08,3.05-2.11,4.43Z" fill="#f7a48b"/>
<path d="M318.34,469.74a79.81,79.81,0,0,1,10.55,9.91,79.12,79.12,0,0,1-10.55-9.91Z" fill="#f7a48b"/>
<path d="M480.38,444.5c-2.29,4.42-6,9.76-10.23,12.46,3.88-3.64,7-8.25,10.23-12.46Z" fill="#f7a48b"/>
<path d="M484.53,431.71c2.12,1.16,4.05,3.22,4.12,5.75l-.21-.27a4.43,4.43,0,0,1,3.15,3.75,3,3,0,0,1,0,.42,7.55,7.55,0,0,1-.08,1.26l-.07-.25a9.47,9.47,0,0,1,1.7,6.36,13.11,13.11,0,0,1-.33,2.16,12.72,12.72,0,0,0-.79-6.32,6.85,6.85,0,0,0-1.12-1.89,9.29,9.29,0,0,0,.06-1.29,6.36,6.36,0,0,0-.08-.75,4,4,0,0,0-2.82-3c.07-2.48-1.65-4.54-3.56-6Z" fill="#f7a48b"/>
<ellipse cx="403.36" cy="148.56" rx="25.89" ry="36.11" fill="#f9b499"/>
<ellipse cx="430.2" cy="149.52" rx="10.55" ry="6.07" transform="translate(207.92 547.03) rotate(-79.95)" fill="#f9b499"/>
<path d="M377.47,144.34a30.22,30.22,0,0,1,7.35-16.56s7.35-16,10.87-11.18a16.74,16.74,0,0,0,6.07,5.43,9.6,9.6,0,0,0,6.69,2.57,4.62,4.62,0,0,1,2.26.67,16.29,16.29,0,0,0,6.39,2.19s1.92-.32,3.19,3.84c0,0,3.52,9.91,10.23,10.23l-3.83-23-24-12.47-16.62,8.31L375.55,131Z" fill="#2f2e41" data-secondary="true"/>
<path d="M405.38,130.55c-10.4-6.52-13-21.74-13.13-22.39l2-.32c0,.15,2.59,15,12.22,21Z" fill="#2f2e41" data-secondary="true"/>
<ellipse cx="376.83" cy="153.03" rx="6.07" ry="10.55" transform="translate(-26.69 102.14) rotate(-14.91)" fill="#f9b499"/>
<path d="M407.15,269.38c.12,0,.12.66,0,1.4s-.31,1.32-.42,1.3-.13-.65,0-1.41S407,269.33,407.15,269.38Z" fill="#2f2e41" data-secondary="true"/>
<path d="M410,259.85a8.26,8.26,0,0,1-.72,2.4c-.46,1.27-.85,2.29-1,2.21a6.31,6.31,0,0,1,.58-2.47A5.52,5.52,0,0,1,410,259.85Z" fill="#2f2e41" data-secondary="true"/>
<path d="M414.79,251.72a7.26,7.26,0,0,1-1.18,2.06c-.72,1.06-1.32,1.89-1.42,1.79a5.79,5.79,0,0,1,1.09-2.21C414,252.25,414.68,251.61,414.79,251.72Z" fill="#2f2e41" data-secondary="true"/>
<path d="M421.13,245.67c.06.14-.68.79-1.58,1.53s-1.7,1.32-1.75,1.19a4.71,4.71,0,0,1,1.51-1.68C420.24,246,421.07,245.54,421.13,245.67Z" fill="#2f2e41" data-secondary="true"/>
<path d="M428.51,242.17a4.43,4.43,0,0,1-1.85.9,4.32,4.32,0,0,1-1.93.52c0-.15.76-.68,1.81-1.1A3.17,3.17,0,0,1,428.51,242.17Z" fill="#2f2e41" data-secondary="true"/>
<path d="M434.51,241.38c0,.16-.47.3-1.05.33s-1.06-.09-1.07-.25.47-.31,1.05-.33S434.51,241.25,434.51,241.38Z" fill="#2f2e41" data-secondary="true"/>
<path d="M432.49,244.79a38.78,38.78,0,0,1,5.09-4l.06.53h-.06a32.64,32.64,0,0,1-5.83-1.86,33.38,33.38,0,0,1,5.94,1.3h0l.58.16-.52.38A39.61,39.61,0,0,1,432.49,244.79Z" fill="#2f2e41" data-secondary="true"/>
<path d="M405.42,270.33c.12,0,.3.55.42,1.3s.11,1.39,0,1.41-.3-.56-.41-1.3A3.13,3.13,0,0,1,405.42,270.33Z" fill="#2f2e41" data-secondary="true"/>
<path d="M402.54,260.8a5.58,5.58,0,0,1,1.11,2.16,6.39,6.39,0,0,1,.58,2.47,7.53,7.53,0,0,1-1-2.21A8.38,8.38,0,0,1,402.54,260.8Z" fill="#2f2e41" data-secondary="true"/>
<path d="M397.76,252.69c.09-.13.8.59,1.52,1.66a5.72,5.72,0,0,1,1.09,2.21c-.09.14-.7-.74-1.42-1.8A8.83,8.83,0,0,1,397.76,252.69Z" fill="#2f2e41" data-secondary="true"/>
<path d="M391.44,246.63a3.7,3.7,0,0,1,1.81,1.05c.93.75,1.59,1.56,1.52,1.68s-.85-.45-1.75-1.19S391.38,246.78,391.44,246.63Z" fill="#2f2e41" data-secondary="true"/>
<path d="M384.05,243.13a3.1,3.1,0,0,1,2,.34,3.81,3.81,0,0,1,1.82,1.11,4.36,4.36,0,0,1-1.94-.52A4.9,4.9,0,0,1,384.05,243.13Z" fill="#2f2e41" data-secondary="true"/>
<path d="M378.05,242.36c0-.16.48-.27,1.07-.25s1.06.17,1.05.32-.49.28-1.06.26S378.05,242.5,378.05,242.36Z" fill="#2f2e41" data-secondary="true"/>
<path d="M380.12,245.74a37.55,37.55,0,0,1-5.34-3.48l-.54-.38.6-.15h0a32.34,32.34,0,0,1,5.94-1.3,32.84,32.84,0,0,1-5.85,1.86h0l.07-.53A40.73,40.73,0,0,1,380.12,245.74Z" fill="#2f2e41" data-secondary="true"/>
<path d="M443.74,144.77a1.55,1.55,0,0,1,0-.43l.07-1.26c.06-1.1.16-2.77.27-4.85s.21-4.68.18-7.73a69.9,69.9,0,0,0-.77-10.11,39.55,39.55,0,0,0-3.61-11.67A31,31,0,0,0,431.05,98a38.67,38.67,0,0,0-13.88-6.76,43.85,43.85,0,0,0-16.57-1,47.24,47.24,0,0,0-28.24,14.24,46.37,46.37,0,0,0-11.5,23.32,48.37,48.37,0,0,0,.11,17.67,44.86,44.86,0,0,0,1.18,4.7l.36,1.2a1.55,1.55,0,0,1,.12.42,2,2,0,0,1-.17-.4c-.1-.3-.24-.68-.42-1.19a38.15,38.15,0,0,1-1.29-4.68,47.48,47.48,0,0,1-.29-17.82A46.37,46.37,0,0,1,372,104a47.58,47.58,0,0,1,28.56-14.45,43.85,43.85,0,0,1,16.76,1.11,39,39,0,0,1,14.07,6.88,31.54,31.54,0,0,1,8.93,11,39.49,39.49,0,0,1,3.57,11.83,67.9,67.9,0,0,1,.7,10.17c0,3-.14,5.58-.28,7.73s-.28,3.74-.37,4.84l-.14,1.26A1.53,1.53,0,0,1,443.74,144.77Z" fill="#2f2e41" data-secondary="true"/>
<path d="M405.52,300.72a6.67,6.67,0,0,1-2.48-1.28h.28l-.1.09-.22.17-.42.32c-.26.2-.51.37-.72.51-.42.28-.7.42-.75.35s.14-.31.5-.66c.18-.18.38-.39.64-.61l.39-.33.21-.18.09-.09h.41C404.68,299.8,405.6,300.58,405.52,300.72Z" fill="#2f2e41" data-secondary="true"/>
<path d="M354.46,306.56c-.06.14-.67,0-1.37-.33s-1.19-.72-1.1-.86.69,0,1.37.34S354.53,306.42,354.46,306.56Z" fill="#2f2e41" data-secondary="true"/>
<path d="M364.91,309.65a9.93,9.93,0,0,1-5.31-1.22,7.49,7.49,0,0,1,2.7.42A7.69,7.69,0,0,1,364.91,309.65Z" fill="#2f2e41" data-secondary="true"/>
<path d="M375.78,310.23a10.75,10.75,0,0,1-5.46,0,7.64,7.64,0,0,1,2.73-.24A7.4,7.4,0,0,1,375.78,310.23Z" fill="#2f2e41" data-secondary="true"/>
<path d="M386.52,308.29a6,6,0,0,1-2.58,1,5.89,5.89,0,0,1-2.73.26,18.22,18.22,0,0,1,5.31-1.26Z" fill="#2f2e41" data-secondary="true"/>
<path d="M396.53,304a6,6,0,0,1-2.28,1.56,5.87,5.87,0,0,1-2.59.9c-.07-.16,1-.74,2.34-1.42A7.91,7.91,0,0,1,396.53,304Z" fill="#2f2e41" data-secondary="true"/>
<path d="M415.73,305.81a14.75,14.75,0,0,1-5.23-2.31A14,14,0,0,1,415.73,305.81Z" fill="#2f2e41" data-secondary="true"/>
<path d="M426.77,309a7.29,7.29,0,0,1-2.85-.39,7,7,0,0,1-2.7-.95,7.17,7.17,0,0,1,2.83.39A7.55,7.55,0,0,1,426.77,309Z" fill="#2f2e41" data-secondary="true"/>
<path d="M438.08,310.16a14.23,14.23,0,0,1-5.71-.34,7.31,7.31,0,0,1,2.87-.11A7.21,7.21,0,0,1,438.08,310.16Z" fill="#2f2e41" data-secondary="true"/>
<path d="M449.46,309.29a7.11,7.11,0,0,1-2.79.64,7.35,7.35,0,0,1-2.88,0,13.25,13.25,0,0,1,5.67-.64Z" fill="#2f2e41" data-secondary="true"/>
<path d="M457.7,307.31c0,.14-.51.44-1.25.66s-1.35.27-1.4.11.52-.45,1.25-.66S457.64,307.16,457.7,307.31Z" fill="#2f2e41" data-secondary="true"/>
<path d="M444.45,365.71a45.14,45.14,0,0,1-.9-7.13l.45.21-.15.12c-3.2,2.46-6,4.42-6.18,4a12.23,12.23,0,0,0,1.72-1.23l4.12-3.2.15-.11.41-.33.06.53A46.54,46.54,0,0,1,444.45,365.71Z" fill="#2f2e41" data-secondary="true"/>
<path d="M371.83,364.81a45.69,45.69,0,0,1-5.95-4l.46-.21v.08c-.11,2-.27,3.8-.43,5.1s-.39,2.21-.58,2a12.79,12.79,0,0,0,.17-2.05c.07-1.56.16-3.25.26-5.09v-.62l.43.31A43.88,43.88,0,0,1,371.83,364.81Z" fill="#2f2e41" data-secondary="true"/>
<path d="M369.86,367.27c-.13.08-.53-.41-.89-1.1s-.53-1.3-.39-1.36.54.42.89,1.1S370,367.19,369.86,367.27Z" fill="#2f2e41" data-secondary="true"/>
<path d="M377,376.28c-.1.13-1.11-.67-2.21-1.85a6.55,6.55,0,0,1-1.67-2.39c.13-.1,1,.84,2.09,2A10.2,10.2,0,0,1,377,376.28Z" fill="#2f2e41" data-secondary="true"/>
<path d="M386.35,383a6.33,6.33,0,0,1-2.66-1.18c-1.37-.84-2.34-1.72-2.21-1.84A8.8,8.8,0,0,1,384,381.3,8.9,8.9,0,0,1,386.35,383Z" fill="#2f2e41" data-secondary="true"/>
<path d="M397.17,386.86a6.34,6.34,0,0,1-2.89-.41,6.23,6.23,0,0,1-2.66-1.16,9.05,9.05,0,0,1,2.82.6A8.91,8.91,0,0,1,397.17,386.86Z" fill="#2f2e41" data-secondary="true"/>
<path d="M408.62,387.44a10.32,10.32,0,0,1-5.75.14,7.76,7.76,0,0,1,2.88-.25A7.11,7.11,0,0,1,408.62,387.44Z" fill="#2f2e41" data-secondary="true"/>
<path d="M419.75,384.56a10.83,10.83,0,0,1-5.46,1.89,9.32,9.32,0,0,1,2.67-1.11A9,9,0,0,1,419.75,384.56Z" fill="#2f2e41" data-secondary="true"/>
<path d="M429.63,378.71c.1.13-.83,1-2.15,2a6.66,6.66,0,0,1-2.6,1.31,10.08,10.08,0,0,1,2.21-1.79A9,9,0,0,1,429.63,378.71Z" fill="#2f2e41" data-secondary="true"/>
<path d="M437.55,370.37a6.23,6.23,0,0,1-1.53,2.47c-1,1.25-2,2.09-2.13,2a9.46,9.46,0,0,1,1.69-2.34C436.58,371.24,437.42,370.29,437.55,370.37Z" fill="#2f2e41" data-secondary="true"/>
<path d="M441.7,363c.14.07,0,.67-.32,1.38s-.7,1.21-.84,1.11,0-.69.32-1.37S441.55,362.9,441.7,363Z" fill="#2f2e41" data-secondary="true"/>
<path d="M360.49,313.27c-.14,0-.46-.5-.69-1.22s-.3-1.36-.16-1.4.47.49.71,1.22S360.68,313.22,360.49,313.27Z" fill="#2f2e41" data-secondary="true"/>
<path d="M363.17,324.18a14,14,0,0,1-1.11-5.53A13.67,13.67,0,0,1,363.17,324.18Z" fill="#2f2e41" data-secondary="true"/>
<path d="M364.39,335.33a7,7,0,0,1-.49-2.78,7.05,7.05,0,0,1,.06-2.82,7,7,0,0,1,.51,2.78A7.23,7.23,0,0,1,364.39,335.33Z" fill="#2f2e41" data-secondary="true"/>
<path d="M364.06,346.55a7.44,7.44,0,0,1-.1-2.82,7.11,7.11,0,0,1,.47-2.78,7.19,7.19,0,0,1,.11,2.81A7,7,0,0,1,364.06,346.55Z" fill="#2f2e41" data-secondary="true"/>
<path d="M362.13,357.59a7,7,0,0,1,.3-2.8,7.27,7.27,0,0,1,.87-2.69,14.07,14.07,0,0,1-1.17,5.53Z" fill="#2f2e41" data-secondary="true"/>
<path d="M358.58,368.23a7,7,0,0,1,.71-2.73,7.08,7.08,0,0,1,1.26-2.53,14.06,14.06,0,0,1-2,5.26Z" fill="#2f2e41" data-secondary="true"/>
<path d="M355,375.78c-.14-.08,0-.69.39-1.36s.75-1.16.89-1.11,0,.68-.39,1.35S355.08,375.85,355,375.78Z" fill="#2f2e41" data-secondary="true"/>
<path d="M450.86,314.19c-.15,0-.08-.66.15-1.4s.55-1.28.69-1.23.09.69-.14,1.41S451.07,314.24,450.86,314.19Z" fill="#2f2e41" data-secondary="true"/>
<path d="M449,324.24a10.61,10.61,0,0,1,.62-5.07,11.35,11.35,0,0,1-.66,5.07Z" fill="#2f2e41" data-secondary="true"/>
<path d="M449.24,334.46a6,6,0,0,1-.46-2.54,5.68,5.68,0,0,1,.11-2.56,5.92,5.92,0,0,1,.46,2.53A5.73,5.73,0,0,1,449.24,334.46Z" fill="#2f2e41" data-secondary="true"/>
<path d="M451.48,344.47a6.09,6.09,0,0,1-1-2.37,5.6,5.6,0,0,1-.36-2.56,6.79,6.79,0,0,1,.92,2.4A5.92,5.92,0,0,1,451.48,344.47Z" fill="#2f2e41" data-secondary="true"/>
<path d="M455.49,353.84a6.16,6.16,0,0,1-1.34-2.21,5.62,5.62,0,0,1-.82-2.44,6.52,6.52,0,0,1,1.35,2.21A5.69,5.69,0,0,1,455.49,353.84Z" fill="#2f2e41" data-secondary="true"/>
<path d="M460.53,362.72c-.14.09-.84-.83-1.56-2a7.34,7.34,0,0,1-1.1-2.35,6.81,6.81,0,0,1,1.56,2.05A6.15,6.15,0,0,1,460.53,362.72Z" fill="#2f2e41" data-secondary="true"/>
<path d="M464.75,369.37c-.13.09-.57-.37-1-1s-.65-1.22-.51-1.31.58.36,1,1S464.88,369.29,464.75,369.37Z" fill="#2f2e41" data-secondary="true"/>
<path d="M343.67,298.51c-.16,0-.08-.68.17-1.4s.57-1.27.71-1.21.08.67-.16,1.39S343.81,298.56,343.67,298.51Z" fill="#2f2e41" data-secondary="true"/>
<path d="M340.18,309.59a7.42,7.42,0,0,1,.57-2.87,7.75,7.75,0,0,1,1.11-2.69,7.42,7.42,0,0,1-.58,2.86A7.59,7.59,0,0,1,340.18,309.59Z" fill="#2f2e41" data-secondary="true"/>
<path d="M337.12,320.79a7.69,7.69,0,0,1,.46-2.89,8.24,8.24,0,0,1,1-2.74,7.46,7.46,0,0,1-.45,2.89A7.7,7.7,0,0,1,337.12,320.79Z" fill="#2f2e41" data-secondary="true"/>
<path d="M334.56,332.11a7.5,7.5,0,0,1,.33-2.9,7.6,7.6,0,0,1,.88-2.78,14.58,14.58,0,0,1-1.21,5.68Z" fill="#2f2e41" data-secondary="true"/>
<path d="M332.56,343.55a14.49,14.49,0,0,1,.92-5.73,7.78,7.78,0,0,1-.17,2.92A7.87,7.87,0,0,1,332.56,343.55Z" fill="#2f2e41" data-secondary="true"/>
<path d="M331.21,355.09a7.55,7.55,0,0,1,0-2.92,7.81,7.81,0,0,1,.58-2.86,7.6,7.6,0,0,1,0,2.93A7.37,7.37,0,0,1,331.21,355.09Z" fill="#2f2e41" data-secondary="true"/>
<path d="M330.67,366.7a14.94,14.94,0,0,1,.17-5.81A14.77,14.77,0,0,1,330.67,366.7Z" fill="#2f2e41" data-secondary="true"/>
<path d="M331,378.29a7.62,7.62,0,0,1-.44-2.88,7.38,7.38,0,0,1,.14-2.92,7.9,7.9,0,0,1,.43,2.89A7.7,7.7,0,0,1,331,378.29Z" fill="#2f2e41" data-secondary="true"/>
<path d="M331.93,386.82c-.16,0-.37-.56-.47-1.32s-.06-1.38.09-1.41.38.58.48,1.33S332.09,386.8,331.93,386.82Z" fill="#2f2e41" data-secondary="true"/>
<path d="M468.73,291.77c-.25-.72-.31-1.34-.17-1.39s.48.49.72,1.21.32,1.39.16,1.39S469,292.49,468.73,291.77Z" fill="#2f2e41" data-secondary="true"/>
<path d="M471.83,301.37a7.41,7.41,0,0,1-.57-2.86,7.73,7.73,0,0,1,1.1,2.69,7.42,7.42,0,0,1,.58,2.86A7.38,7.38,0,0,1,471.83,301.37Z" fill="#2f2e41" data-secondary="true"/>
<path d="M475,312.52a7.25,7.25,0,0,1-.45-2.88,8.36,8.36,0,0,1,1,2.74,7.44,7.44,0,0,1,.46,2.88A7.61,7.61,0,0,1,475,312.52Z" fill="#2f2e41" data-secondary="true"/>
<path d="M478.56,326.59a14.45,14.45,0,0,1-1.22-5.68,7.81,7.81,0,0,1,.89,2.78,7.5,7.5,0,0,1,.33,2.9Z" fill="#2f2e41" data-secondary="true"/>
<path d="M479.81,335.21a7.52,7.52,0,0,1-.18-2.91,7.67,7.67,0,0,1,.75,2.81,7.58,7.58,0,0,1,.18,2.92A7.67,7.67,0,0,1,479.81,335.21Z" fill="#2f2e41" data-secondary="true"/>
<path d="M481.32,346.71a7.55,7.55,0,0,1,0-2.92,7.73,7.73,0,0,1,.58,2.86,7.13,7.13,0,0,1,0,2.91A7.52,7.52,0,0,1,481.32,346.71Z" fill="#2f2e41" data-secondary="true"/>
<path d="M482.27,355.36a7.51,7.51,0,0,1,.37,2.9,7.33,7.33,0,0,1-.19,2.91A14.58,14.58,0,0,1,482.27,355.36Z" fill="#2f2e41" data-secondary="true"/>
<path d="M482,369.85a7.68,7.68,0,0,1,.44-2.88,7.77,7.77,0,0,1,.14,2.92,7.62,7.62,0,0,1-.44,2.88A7.75,7.75,0,0,1,482,369.85Z" fill="#2f2e41" data-secondary="true"/>
<path d="M481.09,379.9c.1-.76.32-1.35.47-1.33s.19.64.09,1.4-.31,1.33-.46,1.33S481,380.65,481.09,379.9Z" fill="#2f2e41" data-secondary="true"/>
<path d="M401.94,129.47c.08.33.14.67.19,1h-.38C401.8,130.14,401.87,129.8,401.94,129.47Z" fill="#2f2e41" data-secondary="true"/>
<path d="M402.33,132.28c.05.6.08,1.21.1,1.81h-1c0-.6,0-1.21.09-1.81Z" fill="#2f2e41" data-secondary="true"/>
<path d="M402.43,135.9c0,.6-.05,1.21-.09,1.81h-.79c-.05-.6-.08-1.21-.09-1.81Z" fill="#2f2e41" data-secondary="true"/>
<path d="M402.13,139.52c-.05.33-.11.66-.19,1-.07-.34-.14-.67-.19-1Z" fill="#2f2e41" data-secondary="true"/>
<path d="M401.94,168.13c.08.34.14.67.19,1h-.38C401.8,168.8,401.87,168.47,401.94,168.13Z" fill="#2f2e41" data-secondary="true"/>
<path d="M402.33,170.94c.05.61.08,1.21.1,1.81h-1c0-.6,0-1.2.09-1.81Z" fill="#2f2e41" data-secondary="true"/>
<path d="M402.43,174.56c0,.6-.05,1.21-.09,1.81h-.79c-.05-.6-.08-1.21-.09-1.81Z" fill="#2f2e41" data-secondary="true"/>
<path d="M402.13,178.18c-.05.33-.11.67-.19,1-.07-.33-.14-.67-.19-1Z" fill="#2f2e41" data-secondary="true"/>
<path d="M382,152.75c.29.16.59.32.87.49l-.12.18C382.47,153.21,382.22,153,382,152.75Z" fill="#2f2e41" data-secondary="true"/>
<path d="M384.63,154.05c.62.19,1.23.4,1.83.61l-.24.74c-.62-.27-1.23-.56-1.83-.85Z" fill="#2f2e41" data-secondary="true"/>
<path d="M388.34,155.06c.64,0,1.27.11,1.9.17l0,1c-.68-.08-1.36-.15-2-.25Z" fill="#2f2e41" data-secondary="true"/>
<path d="M392.14,155.15c.63-.11,1.25-.23,1.88-.32l.24.88c-.67.16-1.34.28-2,.41Z" fill="#2f2e41" data-secondary="true"/>
<path d="M395.86,154.28c.59-.26,1.19-.5,1.79-.74l.28.48c-.58.34-1.17.66-1.77,1Z" fill="#2f2e41" data-secondary="true"/>
<path d="M399.42,152.62c.28-.17.57-.34.87-.5l-.74.68Z" fill="#2f2e41" data-secondary="true"/>
<path d="M407.39,151.64c.29.17.58.32.86.5l-.12.18C407.87,152.1,407.63,151.87,407.39,151.64Z" fill="#2f2e41" data-secondary="true"/>
<path d="M410,152.94c.62.2,1.23.4,1.83.62l-.24.74c-.62-.28-1.23-.56-1.83-.85Z" fill="#2f2e41" data-secondary="true"/>
<path d="M413.74,154c.64,0,1.27.1,1.91.16l0,1-2-.24Z" fill="#2f2e41" data-secondary="true"/>
<path d="M417.55,154c.62-.11,1.25-.23,1.88-.32l.23.89c-.66.15-1.33.28-2,.41Z" fill="#2f2e41" data-secondary="true"/>
<path d="M421.27,153.17c.59-.25,1.18-.5,1.79-.74l.27.49-1.76,1Z" fill="#2f2e41" data-secondary="true"/>
<path d="M424.82,151.52l.87-.51c-.24.23-.48.47-.74.69Z" fill="#2f2e41" data-secondary="true"/>
</g>
<rect x="367.37" y="52.71" width="83.53" height="11.22" rx="4.5" fill="#2e3135"/>
<circle cx="407.89" cy="524.57" r="14.34" fill="#2e3135"/>
<path d="M506.79,199.42a1.53,1.53,0,0,0-.52,1.84c.82,2.12,13.82,12,13.82,12a5.83,5.83,0,0,0-4.37,3.06l-.08.09a3.26,3.26,0,0,0,.64,4.54,4.35,4.35,0,0,0-3.72,2.45,14.08,14.08,0,0,0-1.25,6.46,6.32,6.32,0,0,0-1.61,6.08c1,3.69,24.25,13.41,24.25,13.41l6.35,10.56,9.27-11.71-18.44-36.62-19.81-12.37A3.82,3.82,0,0,0,506.79,199.42Z" fill="#f9b499"/>
<path d="M547.08,251.88S535.2,247.59,532.77,241s2-19.3,2-19.3a13.25,13.25,0,0,1-10.61-7.37c-3.53-7.06.34-7.84.34-7.84l19.7,10.05,5.73,18.4,7,5.22Z" fill="#f9b499"/>
<path d="M531.47,235.93a22.44,22.44,0,0,1,3.83-13.53l.3-.46-.53-.15-.74-.21a27.62,27.62,0,0,1-7.21-3.79,10,10,0,0,1-3.62-5.32,7.53,7.53,0,0,1,.06-4.36,9.25,9.25,0,0,1,.67-1.56,3.11,3.11,0,0,0-1,1.39,7.28,7.28,0,0,0-.35,4.63,10.45,10.45,0,0,0,3.71,5.8,27.2,27.2,0,0,0,7.41,4l.73.21-.2-.65A21.88,21.88,0,0,0,530.81,236a19.1,19.1,0,0,0,.84,4.36,6.79,6.79,0,0,0,.63,1.48A41.57,41.57,0,0,1,531.47,235.93Z" fill="#f7a48b"/>
<path d="M518.59,223.09c1.21.88,3,2,5.22,3.56a22,22,0,0,1,3.32,2.69,3.62,3.62,0,0,1,1.08,1.87,2.26,2.26,0,0,1-.81,2,4,4,0,0,1-4.7.6,9.62,9.62,0,0,0-1.34-.56,10.07,10.07,0,0,1-1.29-.6c-.85-.47-1.7-1-2.54-1.55l-2.3-1.49-.45.75a22.64,22.64,0,0,1,4,3.49l1.83,1.84a23.44,23.44,0,0,1,1.73,1.69,2.21,2.21,0,0,1,.55,1.9,1.4,1.4,0,0,1-1.25,1.09,9.41,9.41,0,0,1-3.77-.26,21.66,21.66,0,0,1-5.08-2.28,14,14,0,0,0-1.82-1,8.46,8.46,0,0,0,1.64,1.27,19.49,19.49,0,0,0,5.1,2.6,9.91,9.91,0,0,0,4,.36,2.68,2.68,0,0,0,1.15-.46,2.07,2.07,0,0,0,.72-1.15,3,3,0,0,0-.68-2.49c-.55-.7-1.22-1.2-1.78-1.8l-1.8-1.84a23.07,23.07,0,0,0-4.21-3.68l-.46.75,2.29,1.5c.86.56,1.71,1.1,2.6,1.58a10.39,10.39,0,0,0,1.4.64c.45.16.86.42,1.32.55a5.28,5.28,0,0,0,3,.49,5.08,5.08,0,0,0,2.6-1.31,3,3,0,0,0,1-2.64,4.27,4.27,0,0,0-1.32-2.28,21.42,21.42,0,0,0-3.48-2.74c-2.27-1.41-4.12-2.5-5.38-3.28l-2-1.22A8.58,8.58,0,0,0,518.59,223.09Z" fill="#f7a48b"/>
<path d="M523.93,216.31a41.15,41.15,0,0,1,3.71,3.52c.67.73,1.32,1.53,2,2.31s1.42,1.75,1.18,2.58a2,2,0,0,1-2.11,1.28,10.76,10.76,0,0,1-2.86-.63c-1.79-.62-3.37-1.33-4.71-1.93-2.67-1.23-4.24-2.22-4.28-2.11a14.47,14.47,0,0,0,4,2.66,39.85,39.85,0,0,0,4.76,2.15,11.41,11.41,0,0,0,3.1.74,3.33,3.33,0,0,0,1.86-.39,2.24,2.24,0,0,0,1.16-1.62,4.51,4.51,0,0,0-1.37-3.26c-.72-.87-1.38-1.63-2.06-2.33a37.9,37.9,0,0,0-3.93-3.45,15.61,15.61,0,0,0-4.11-2.47C520.2,213.56,521.78,214.46,523.93,216.31Z" fill="#f7a48b"/>
<path d="M530.66,656.5l116.1-3.24L644,630.46l-60.42-6.53S539.36,644.81,530.66,656.5Z" fill="#0071f2" data-primary="true"/>
<path d="M530.66,656.5l116.1-3.24L644,630.46l-60.42-6.53S539.36,644.81,530.66,656.5Z" opacity="0.2"/>
<polygon points="530.9 662.21 530.66 656.5 646.76 653.26 646.26 660.23 530.9 662.21" fill="#2f2e41" data-secondary="true"/>
<polygon points="530.9 662.21 530.66 656.5 646.76 653.26 646.26 660.23 530.9 662.21" opacity="0.2"/>
<path d="M623.89,658.24,738.5,653l-5-33.57-61.16,10.44S634.08,647.3,623.89,658.24Z" fill="#0071f2" data-primary="true"/>
<polygon points="738.25 660.47 738.5 653.02 623.89 658.24 623.89 665.45 738.25 660.47" fill="#2f2e41" data-secondary="true"/>
<path d="M737.5,622.68l-65.13,7.21-26.6-222.75V630.89l-62.16-7,1.24-16.66h2l12.43-295.85,26.54-3.31s6.78,3.06,40.34,1.32L720,402l9.82,179.68Z" fill="#2f2e41" data-secondary="true"/>
<polygon points="586.84 607.27 644.72 608.89 645.76 407.14 627.37 589.62 587.84 594.09 586.84 607.27" opacity="0.2"/>
<path d="M680.82,156.29h-3.73s-32.94,2.11-41,5.22c0,0-5.71,16.73-7.89,56.9a691.77,691.77,0,0,0-2.35,72.16l-.2,21.38,40.4-.39V275.28l-1-52.94S665.9,176.42,680.82,156.29Z" fill="#e6e6e6"/>
<path d="M641.29,160.26s6.46,14.67,13.92,13.43c0,0,8.16-5.1,14.69-10.33,3.14-2.51,5.9-5.06,7.19-7.07,0,0-3.48.24-7.83-17.41l-2.42-1.65-5.22-3.57-16.35,18.9S647,158.77,641.29,160.26Z" fill="#f9b499"/>
<path d="M665.41,234.1l.74,75.33c-5.47,55.44,31.33,85.77,31.33,85.77,11.43,10.44,29.08,6,29.08,6l-9.44-93.48C748.19,315.4,740,243.05,740,243.05c-.75-38.53-7.46-55.94-7.46-55.94-6.71-25.85-51.71-30.82-51.71-30.82S662.92,178.66,665.41,234.1Z" fill="#0071f2" data-primary="true"/>
<path d="M665.41,234.1l.74,75.33c-5.47,55.44,31.33,85.77,31.33,85.77,11.43,10.44,29.08,6,29.08,6l-9.44-93.48C748.19,315.4,740,243.05,740,243.05c-.75-38.53-7.46-55.94-7.46-55.94-6.71-25.85-51.71-30.82-51.71-30.82S662.92,178.66,665.41,234.1Z" fill="#0071f2" data-primary="true"/>
<path d="M665.41,234.1l.74,75.33c-5.47,55.44,31.33,85.77,31.33,85.77,11.43,10.44,29.08,6,29.08,6l-9.44-93.48C748.19,315.4,740,243.05,740,243.05c-.75-38.53-7.46-55.94-7.46-55.94-6.71-25.85-51.71-30.82-51.71-30.82S662.92,178.66,665.41,234.1Z" fill="#fff" opacity="0.5"/>
<path d="M680.82,156.29s12.93,1.74,20.39,4.47l-11.69,28.09-11.44,1.25,8.46,11.18S667.48,245.4,666,259L665,218.57S665.65,178.66,680.82,156.29Z" fill="#0071f2" data-primary="true"/>
<path d="M730.79,287.06s-4.72-12.93-25.36-21.88l-23.62-8.7s-5.22,14.42-13.67,16.65c0,0,6.22-9.44,6.22-16.9l-3.48-1v-8.45l36.54,10.94S729.05,264.43,730.79,287.06Z" fill="#fff" opacity="0.6"/>
<polygon points="666.9 278.11 712.02 307.57 696.73 306.94 665.95 280.94 665.64 277.54 666.9 278.11" fill="#fff" opacity="0.6"/>
<path d="M721.83,354.43S705.18,359.9,702,338.27L696.73,307l20.39.74Z" fill="#0071f2" data-primary="true"/>
<path d="M636.07,161.51s-34.81,7.7-37.79,23.12L590.08,255l-32.32-18.39-24.37,20.88s31.33,53,59.67,43.76l-9.95,101.43,14.18,1.24s26.1-8.2,27.59-49.47c1.35-37.27,1.07-94.61,1-105.38,0-1.22,0-2.44.1-3.65C626.65,234.53,630.26,179.62,636.07,161.51Z" fill="#0071f2" data-primary="true"/>
<path d="M636.07,161.51s-34.81,7.7-37.79,23.12L590.08,255l-32.32-18.39-24.37,20.88s31.33,53,59.67,43.76l-9.95,101.43,14.18,1.24s26.1-8.2,27.59-49.47c1.35-37.27,1.07-94.61,1-105.38,0-1.22,0-2.44.1-3.65C626.65,234.53,630.26,179.62,636.07,161.51Z" fill="#fff" opacity="0.5"/>
<path d="M636.07,161.51s-14.42,3-20.76,7.35l-.62,27.2,5,8.95-5.47,8s1.61,40.15,11.62,54.38C625.81,267.35,628.11,184.63,636.07,161.51Z" fill="#0071f2" data-primary="true"/>
<rect x="598.53" y="191.59" width="57.18" height="81.79" rx="7.02" transform="translate(1254.24 464.97) rotate(-180)" fill="#2f2e41" data-secondary="true"/>
<path d="M593.06,301.23s6.71-17.19,5.47-35.45l-3.61-47.71-1.53,9.76L590.08,255s2.7,42.84-29.73,35.22C560.35,290.2,577.89,307.19,593.06,301.23Z" fill="#fff" opacity="0.6"/>
<path d="M611,305.7l-18.19-2.53L588.14,352s16.36,6.2,20.08-17.92Z" fill="#0071f2" data-primary="true"/>
<path d="M641.29,160.26s5.59-.62,4-7.7L658.07,142S658.82,160.39,641.29,160.26Z" fill="#f7a48b"/>
<ellipse cx="639.92" cy="121.73" rx="24.24" ry="33.31" fill="#f9b499"/>
<path d="M613.2,105.57l-7,1.24c12.18,17.4,26.6-.25,26.6-.25,0,4.73-2.49,6.22-2.49,6.22,8.21-.25,12.43-5,13.67-6.71,6.24-8.74,14.83,19.87,14.83,19.87l18.83-2.78c6.06-11.5,4.38-24.3,4.38-24.3-4-18.4-19.39-9.7-19.39-9.7,2.49-9.2-6-13.18-6-13.18-14.42-8.2-29.33,9-29.33,9-8.7,9.95-24.12,10.2-24.12,10.2C605.74,102.09,613.2,105.57,613.2,105.57Z" fill="#2f2e41" data-secondary="true"/>
<path d="M606.24,106.81c12.18,17.4,26.6-.25,26.6-.25,0,4.73-2.49,6.22-2.49,6.22,8.21-.25,12.43-5,13.67-6.71,6.24-8.74,14.83,19.87,14.83,19.87l18.83-2.78s.65-16.85-8.3-22.81c0,0,.25-1.25,4.23-1.25,0,0-2.24-10.44-16.66-3.23,0,0,2-8.7-9.44-11.19,0,0,6,5.11,4.85,9.15,0,0-7.09-5.17-14.55,1.3,0,0-8.95,11.43-19.14,5.72a11.65,11.65,0,0,0,10.44,4c7-.74,1,.5,1,.5S621.15,121,606.24,106.81Z" opacity="0.2"/>
<path d="M666.42,137.43a68.66,68.66,0,0,1,3.48,25.93,44.61,44.61,0,0,0,4.29-3.72,21.08,21.08,0,0,0,2.9-3.35s-3.48.24-7.83-17.41l-2.42-1.65Z" fill="#f7a48b"/>
<circle cx="669.26" cy="128.07" r="10.81" fill="#f9b499"/>
<path d="M636.57,255.23a13.57,13.57,0,0,0,2.32,7.34,12.5,12.5,0,0,0,8.12,5.09l19.64,6.47s5.72-2.24,7.71-17.9l-3.48-1v-8.45s.74-11.44-9.2-12.43L654.61,222a1.13,1.13,0,0,0-2,.06c-1,2.14-1.92,6.49,1.86,13.55,0,0-.25,2.24-4-1.24a41.84,41.84,0,0,0-6.47-4.26,12.84,12.84,0,0,0-4.06-1.42,2.77,2.77,0,0,0-3.1,3,10.27,10.27,0,0,0,2.93,6.42,2.11,2.11,0,0,1,.68,1.71,3.51,3.51,0,0,1-2.18,2.71,6.9,6.9,0,0,0-3.74,5.4A11.32,11.32,0,0,0,636.57,255.23Z" fill="#f9b499"/>
<path d="M666.65,274.13l-6.26-1.84s9.49-10.34,10.49-17.06l3.48,1S673.61,267.91,666.65,274.13Z" fill="#f7a48b"/>
<path d="M636.57,255.23a13.57,13.57,0,0,0,2.32,7.34l.5-.16c4.32-4,.66-8.42.66-8.42-2.49-7.21.49-9.7.49-9.7,4.23-3.23-.49-8.7-.49-8.7-.5-4.22,4-5.29,4-5.29v-.21a12.84,12.84,0,0,0-4.06-1.42,2.77,2.77,0,0,0-3.1,3,10.27,10.27,0,0,0,2.93,6.42,2.11,2.11,0,0,1,.68,1.71,3.51,3.51,0,0,1-2.18,2.71,6.9,6.9,0,0,0-3.74,5.4A11.32,11.32,0,0,0,636.57,255.23Z" fill="#f7a48b"/>
<polygon points="212.41 626.93 212.28 622.8 245.71 621.16 251.48 634.48 245.26 639.81 211.08 637.14 212.41 626.93" fill="#f9b499"/>
<path d="M204,657.56,318.07,662s2.66-14.2-20.87-23.52l-39.51-17.32h-12s-1.27,8.32-7.54,11.72a17.1,17.1,0,0,1-17-.6l-8.72-5.35Z" fill="#0071f2" data-primary="true"/>
<path d="M204,657.56,318.07,662s2.66-14.2-20.87-23.52l-39.51-17.32h-12s-1.27,8.32-7.54,11.72a17.1,17.1,0,0,1-17-.6l-8.72-5.35Z" opacity="0.2"/>
<polygon points="118.74 629.15 118.6 625.02 152.01 626.02 157.8 636.7 151.59 642.03 117.4 639.36 118.74 629.15" fill="#f9b499"/>
<path d="M184.41,329.83l35,.76,8.08-144.5-12.87-15.54s-.19-.76-5.87-2.82l-39.41-1.62s20.54,79.34,15.82,132.9Z" fill="#e6e6e6"/>
<polygon points="110.3 624.71 172.01 626.93 194.21 408.06 203.09 623.38 257.69 621.16 246.25 331.33 161.8 329.93 125.08 428.06 110.3 624.71" fill="#2f2e41" data-secondary="true"/>
<polygon points="194.21 408.06 195.54 394.75 210.19 391.64 209.3 482.2 221.73 492.42 207.08 499.96 214.63 507.51 207.08 514.17 203.09 623.38 194.21 408.06" opacity="0.2"/>
<polygon points="110.3 624.71 115.73 625 128.5 510.17 141.38 498.19 132.5 486.2 148.93 480.87 132.94 452.9 134.27 414.72 125.08 428.06 110.3 624.71" opacity="0.2"/>
<path d="M210,171.75c-.75,8-4.1,12-5.86,13.52a3.82,3.82,0,0,1-2.64,1c-2.3-.06-5.06-1.24-7.78-2.85a74.55,74.55,0,0,1-12-9.29c-8-6.66-12-5.77-12-5.77a6.6,6.6,0,0,1,3.11-6.66l.75-24.26,1.47-2.38.37,0,8.16-.83,12.78,2.64,6.12,21.12.54,5.52,4.54,3.12A5.61,5.61,0,0,1,210,171.75Z" fill="#f9b499"/>
<path d="M207.63,166.57s-18.87-2.31-20.08-20.44c0,0,4.88,9.33,15.09,12l.45,5.33Z" fill="#f7a48b"/>
<path d="M193.75,183.39a74.55,74.55,0,0,1-12-9.29c-8-6.66-12-5.77-12-5.77a6.6,6.6,0,0,1,3.11-6.66l.75-24.26,1.47-2.38.37,0,1,2.7s-1.33,21.31,2.22,26.64Z" fill="#f7a48b"/>
<path d="M117,427.15l19.09-104.32s-26.19,2.66-27.52-24.87l1.33-77.24s-7.11-40.4,59.49-54.61l.44,2.22s8.88,32,12,62.15c0,0,6.21,52.39,2.22,104.78l-6.22,46.17S173.34,436.48,117,427.15Z" fill="#0071f2" data-primary="true"/>
<path d="M117,427.15l19.09-104.32s-26.19,2.66-27.52-24.87l1.33-77.24s-7.11-40.4,59.49-54.61l.44,2.22s8.88,32,12,62.15c0,0,6.21,52.39,2.22,104.78l-6.22,46.17S173.34,436.48,117,427.15Z" fill="#fff" opacity="0.5"/>
<path d="M136.05,322.83s8.88.44,33.3-19.54c0,0-6.22,24-12.43,30.19L134.56,331Z" fill="#fff" opacity="0.5"/>
<path d="M125.81,378.16l13.32.46a14.06,14.06,0,0,0,13.27-8,23.33,23.33,0,0,0,1.85-6.09l2.67-31.08L134.56,331Z" fill="#0071f2" data-primary="true"/>
<path d="M113,312.61s-1.41-7.55,3.33-17a35.77,35.77,0,0,1,12.38-13.72h0a112.38,112.38,0,0,1,24.2-12l8.49-3s5.77,17.31,19.53,17.31c0,0-14.65-11.54-12.88-24l-40.84,16s-18.64,5.33-18.64,21.75C108.53,298,109.89,309.6,113,312.61Z" fill="#0071f2" data-primary="true"/>
<path d="M113,312.61s-1.41-7.55,3.33-17a35.77,35.77,0,0,1,12.38-13.72h0a112.38,112.38,0,0,1,24.2-12l8.49-3s5.77,17.31,19.53,17.31c0,0-14.65-11.54-12.88-24l-40.84,16s-18.64,5.33-18.64,21.75C108.53,298,109.89,309.6,113,312.61Z" fill="#fff" opacity="0.6"/>
<path d="M169.35,166.11a117.55,117.55,0,0,0-28.7,9.61l19.82,32.12,12-.89-9.32,14.65,22,59.53S186.66,233.59,169.35,166.11Z" fill="#0071f2" data-primary="true"/>
<path d="M214.63,170.55s42.17.44,51.05,26.64l22.73,54.39a96.16,96.16,0,0,1,7.47,33.11c.44,10.57-1,21.38-8,23.93,0,0-5.33,6.66-32.41,3.11l.45,119.86s-36.41-3.1-37.3-49.27l1.78-94.12S219.07,202.51,214.63,170.55Z" fill="#0071f2" data-primary="true"/>
<path d="M214.63,170.55s42.17.44,51.05,26.64l22.73,54.39a96.16,96.16,0,0,1,7.47,33.11c.44,10.57-1,21.38-8,23.93,0,0-5.33,6.66-32.41,3.11l.45,119.86s-36.41-3.1-37.3-49.27l1.78-94.12S219.07,202.51,214.63,170.55Z" fill="#fff" opacity="0.5"/>
<path d="M214.63,170.55s17.19.38,24.58,4.41l.72,28.89-11.54.44,8.44,4.44s-12.12,58-16.27,86.48l-1.9-70S216.41,185.64,214.63,170.55Z" fill="#0071f2" data-primary="true"/>
<path d="M168,260.23l4.44-.89,21.76,17.31s-4.44,9.33-13.32,7.55C180.89,284.2,165.79,271.77,168,260.23Z" fill="#f9b499"/>
<polygon points="235.94 293.08 250.15 226.04 299.42 203.85 275.89 277.1 235.94 293.08" fill="#ccc"/>
<path d="M221.18,215l-.45-20.43c-2.11-32.88-17.74-33.2-18.06-33.2h0l0-2c.74,0,17.86-.07,20.11,35.12l.45,20.46Z" fill="#2f2e41" data-secondary="true"/>
<path d="M162.34,176l-2-.31c0-.36,1.53-9,12-14.92l1,1.74C163.71,168,162.36,176,162.34,176Z" fill="#2f2e41" data-secondary="true"/>
<path d="M136.7,259.19c-4.72-4.39-4-12.57-3.2-17.06a22.47,22.47,0,0,1,1.55-5l10.41-23.66,1.83.8L136.88,238a19.94,19.94,0,0,0-1.41,4.55c-.76,4.08-1.43,11.49,2.59,15.22Z" fill="#2f2e41" data-secondary="true"/>
<path d="M162.12,261.62l-.64-1.9c9.18-3.05,6.87-32.14,5.21-43.09l2-.3C168.92,218,174.76,257.41,162.12,261.62Z" fill="#2f2e41" data-secondary="true"/>
<path d="M134,254.12h0a1.94,1.94,0,0,1,2.29-.13l3.77,2.44a2.48,2.48,0,0,1,.41,3.84h0a2.49,2.49,0,0,1-3.58-.06l-3.06-3.28A1.94,1.94,0,0,1,134,254.12Z" fill="#0071f2" data-primary="true"/>
<path d="M153.23,263.57h0a1.94,1.94,0,0,0,2.59,1.1l6.76-2.93a1.37,1.37,0,0,0,.63-2h0a1.35,1.35,0,0,0-1.52-.62L154.56,261A1.93,1.93,0,0,0,153.23,263.57Z" fill="#0071f2" data-primary="true"/>
<path d="M222.61,276.29l4.33.59c.48.06,1,.12,1.45.22a10.06,10.06,0,0,1-2.95,0,8.8,8.8,0,0,1-2.83-.84Z" fill="#f7a48b"/>
<path d="M235.94,331.26l19.83.3v47.83s-11,1.67-16.88-5.6a13.73,13.73,0,0,1-2.95-8.65Z" fill="#0071f2" data-primary="true"/>
<path d="M107.19,659.78l115,6.22s2.66-14.21-20.87-23.53L161.48,627,152,626a15,15,0,0,1-7.51,9.08,17.1,17.1,0,0,1-17-.6l-8.72-5.35Z" fill="#0071f2" data-primary="true"/>
<ellipse cx="205.31" cy="126.82" rx="22.2" ry="31.3" fill="#f9b499"/>
<path d="M238.16,111.51s-.45,14.65-16.87,3.1l-7.55-7.54s-10.21,8.43-16.87,4.44c0,0-6.61,14.24-30.61,10.22l0-.08h0c-.63-1.81-9.71-29.22,17.77-29.22,0,0,0-13.77,12.87-11.1,0,0,7.1-4.44,15.1,9.32a7.54,7.54,0,0,0,7.1,3.55s11.1-2.22,10.65,11.54C229.72,105.73,234.16,112,238.16,111.51Z" fill="#2f2e41" data-secondary="true"/>
<path d="M213.74,107.07s-10.21,8.43-16.87,4.44c0,0-6.61,14.24-30.61,10.22h0a.24.24,0,0,1,0-.07h0c-.13-1.59-1.82-26.95,24-25.23,0,0,5.33-6.66,10.21-8,0,0-5.77,10.65-1.77,11.54,0,0,8-7.1,15.54,1.78C214.19,101.74,217.29,104,213.74,107.07Z" opacity="0.2"/>
<ellipse cx="176.45" cy="125.27" rx="10.65" ry="12.43" fill="#f9b499"/>
<polygon points="264.03 282.73 269.9 270.22 281.89 271.55 277.45 280.43 264.03 282.73" fill="#0071f2" data-primary="true"/>
<polygon points="264.03 282.73 269.9 270.22 281.89 271.55 277.45 280.43 264.03 282.73" fill="#fff" opacity="0.5"/>
<path d="M295.43,278s-15.1-6.66-25.31-6.22c0,0-7.54,17.32-16.87,18.65,0,0,12.88-11.55,12-26.64L280.78,266C280.93,265.54,296.32,267.33,295.43,278Z" fill="#0071f2" data-primary="true"/>
<path d="M295.43,278s-15.1-6.66-25.31-6.22c0,0-7.54,17.32-16.87,18.65,0,0,12.88-11.55,12-26.64L280.78,266C280.93,265.54,296.32,267.33,295.43,278Z" fill="#fff" opacity="0.6"/>
<polygon points="169.57 269.33 235.94 293.08 250.15 226.04 189.77 198.52 169.57 269.33" fill="#e1e1e2"/>
<path d="M264.49,272s-1.7,8.16-9.35,16.15c0,0-5.44-4.43-11.65-5.76l-15.1-.89s-8.34.72-9.29-3.73a1.31,1.31,0,0,1,1.32-1.57l2.19.05s-9.76-5-8-9.4c0,0,.89-1.78,3.55,1.33,0,0,3.79,2.48,6.56,1.9,0,0-13.22-7.67-10.11-12.56,0,0,2.66-1.77,8,3.11a18.42,18.42,0,0,0,7.09,3.55c-.41-.26-13.81-8.76-13.41-16.47a2.48,2.48,0,0,1,3.73-2c.26.16.55.34.85.55a27.92,27.92,0,0,1,4.83,4.37,18.4,18.4,0,0,0,4.68,3.74c3.92,2.18,10.7,4.89,17.09,2.28,0,0,4-1.78,3.11-4.89,0,0-1.21-6.29.48-10.12a5.12,5.12,0,0,1,1.32-1.86,1.21,1.21,0,0,1,2,.73c.5,3,2,9.26,6,12.59,0,0,6.21,2.66,2.66,15.09A3.72,3.72,0,0,0,264.49,272Z" fill="#f9b499"/>
<path d="M252.81,254.9c-.44,5.33-6.22,5.77-6.22,5.77-19.09.45-25.89-14.35-25.89-14.35l.18,0a27.92,27.92,0,0,1,4.83,4.37,18.4,18.4,0,0,0,4.68,3.74c3.92,2.18,10.7,4.89,17.09,2.28,0,0,4-1.78,3.11-4.89,0,0-1.21-6.29.48-10.12l.24,0C250.26,246.13,252.81,254.9,252.81,254.9Z" fill="#f7a48b"/>
<path d="M144,213.17l4.88,1.33S154.7,193.64,160,195c0,0,4.44-.89,4.89,21.75l4.88-.44s.89-20.87-8-25.75l1.78-14.65-4-.89-1.78,15.09S150.26,191,144,213.17Z" fill="#2f2e41" data-secondary="true"/>
<path d="M144,213.17l4.88,1.33S154.7,193.64,160,195c0,0,4.44-.89,4.89,21.75l4.88-.44s.89-20.87-8-25.75l1.78-14.65-4-.89-1.78,15.09S150.26,191,144,213.17Z" opacity="0.2"/>
<path d="M623.86,45.39a27,27,0,1,0-27,27c5,0,8.63-.52,12.63-2.87l.86-.67,7.76,1L617.32,63A26.91,26.91,0,0,0,623.86,45.39Z" fill="#fff" stroke="#2f2e41" stroke-miterlimit="10"/>
<path d="M599.22,35.32l5.61,4.38h0L592.72,55.22a1.92,1.92,0,0,1-2.69.33h0l-2.58-2a1.91,1.91,0,0,1-.33-2.69h0l12.1-15.51Z" fill="#0071f2" data-primary="true"/>
<path d="M584.31,60.81a.55.55,0,0,0,.45-.22L590,53.82a.57.57,0,0,0-.9-.7l-5.29,6.76a.59.59,0,0,0,.11.81A.57.57,0,0,0,584.31,60.81Z" fill="#0071f2" data-primary="true"/>
<path d="M607.67,42.5a.58.58,0,0,0,.57-.57.56.56,0,0,0-.22-.45l-11.27-8.81a.57.57,0,0,0-.79.83l.08.06,11.27,8.88A.56.56,0,0,0,607.67,42.5Z" fill="#2f2e41" data-secondary="true"/>
<path d="M599.25,36.09,604.74,29l4.89,3.82-5.53,7.08ZM605,30.66l-4.09,5.23L604,38.33l4.12-5.27Z" fill="#2f2e41" data-secondary="true"/>
<path d="M610.52,34.81a.58.58,0,0,0,.58-.57.59.59,0,0,0-.22-.45L604,28.44a.58.58,0,0,0-.8.09.61.61,0,0,0,.09.82l6.89,5.35A.51.51,0,0,0,610.52,34.81Z" fill="#455a64"/>
<path d="M590.62,50.77a.3.3,0,0,0,.23-.11.31.31,0,0,0-.06-.41l-1.86-1.44a.27.27,0,0,0-.39,0h0a.29.29,0,0,0,.05.4l1.86,1.46A.32.32,0,0,0,590.62,50.77Z" fill="#fff"/>
<path d="M593.3,47.38a.26.26,0,0,0,.23-.11.28.28,0,0,0,0-.4l-1.86-1.45a.28.28,0,0,0-.39.08.29.29,0,0,0,0,.37l1.86,1.46A.26.26,0,0,0,593.3,47.38Z" fill="#fff"/>
<path d="M592.79,49.84a.27.27,0,0,0,.23-.11.28.28,0,0,0,0-.39v0l-2.76-2.14a.28.28,0,1,0-.39.41l0,0,2.75,2.15A.31.31,0,0,0,592.79,49.84Z" fill="#fff"/>
<path d="M596.17,43.65a.29.29,0,0,0,.18-.51l-1.9-1.45a.27.27,0,0,0-.39,0h0a.28.28,0,0,0,.06.4L596,43.55A.26.26,0,0,0,596.17,43.65Z" fill="#fff"/>
<path d="M595.7,46.11a.27.27,0,0,0,.23-.12.26.26,0,0,0,0-.38v0l-2.76-2.16a.31.31,0,0,0-.41.06.3.3,0,0,0,.06.4L595.58,46A.21.21,0,0,0,595.7,46.11Z" fill="#fff"/>
<path d="M598.94,40.14a.3.3,0,0,0,.22-.12.26.26,0,0,0,0-.38v0l-1.86-1.45a.28.28,0,0,0-.4,0,.27.27,0,0,0,0,.38l0,0L598.76,40A.27.27,0,0,0,598.94,40.14Z" fill="#fff"/>
<path d="M598.47,42.56a.29.29,0,0,0,.29-.28.28.28,0,0,0-.12-.23l-2.75-2.15a.29.29,0,0,0-.36.45l2.77,2.15A.19.19,0,0,0,598.47,42.56Z" fill="#fff"/>
</svg>